<svg width="671" height="173" viewBox="0 0 671 173" fill="none" xmlns="http://www.w3.org/2000/svg">
<path d="M126 42.1802L121.418 113.615L77.8909 20L126 42.1802ZM95.8017 134.545L63 153.289L30.1983 134.545L36.8628 118.405H89.2413L95.8017 134.545ZM63 55.5091L80.1818 97.3703H45.8182L63 55.5091ZM4.58182 113.615L0 42.1802L48.1091 20L4.58182 113.615Z" fill="url(#paint0_linear_1700_52)"/>
<path d="M126 42.1802L121.418 113.615L77.8909 20L126 42.1802ZM95.8017 134.545L63 153.289L30.1983 134.545L36.8628 118.405H89.2413L95.8017 134.545ZM63 55.5091L80.1818 97.3703H45.8182L63 55.5091ZM4.58182 113.615L0 42.1802L48.1091 20L4.58182 113.615Z" fill="url(#paint1_linear_1700_52)"/>
<path d="M203.23 136L198.023 114.41H168.686L163.352 136H141L169.956 44.941H196.372L225.455 136H203.23ZM187.609 77.199C187.101 75.421 186.593 73.5583 186.085 71.611C185.577 69.6637 185.069 67.6317 184.561 65.515C184.138 63.3983 183.714 61.2393 183.291 59.038C182.952 61.2393 182.529 63.4407 182.021 65.642C181.513 67.7587 181.005 69.7907 180.497 71.738C180.074 73.6853 179.608 75.5057 179.1 77.199L173.258 98.281H193.578L187.609 77.199ZM289.722 66.658V136H274.355L271.688 127.11H270.545C269.19 129.481 267.455 131.428 265.338 132.952C263.306 134.391 261.02 135.45 258.48 136.127C255.94 136.889 253.315 137.27 250.606 137.27C246.119 137.27 242.139 136.381 238.668 134.603C235.197 132.825 232.445 130.073 230.413 126.348C228.466 122.623 227.492 117.797 227.492 111.87V66.658H247.812V107.171C247.812 112.082 248.532 115.807 249.971 118.347C251.41 120.887 253.739 122.157 256.956 122.157C260.258 122.157 262.798 121.268 264.576 119.49C266.354 117.712 267.582 115.13 268.259 111.743C269.021 108.356 269.402 104.208 269.402 99.297V66.658H289.722ZM330.492 122.157C332.524 122.157 334.387 121.945 336.08 121.522C337.858 121.099 339.678 120.591 341.541 119.998V134.095C339.424 134.942 336.927 135.661 334.048 136.254C331.254 136.931 327.952 137.27 324.142 137.27C320.078 137.27 316.437 136.593 313.22 135.238C310.087 133.883 307.632 131.555 305.854 128.253C304.076 124.866 303.187 120.21 303.187 114.283V80.882H294.932V72.881L304.838 66.531L310.426 51.926H323.507V66.658H340.779V80.882H323.507V114.283C323.507 116.908 324.142 118.897 325.412 120.252C326.682 121.522 328.375 122.157 330.492 122.157ZM367.947 59.165C367.947 62.5517 367.82 65.8113 367.566 68.944C367.397 72.0767 367.227 74.278 367.058 75.548H368.074C369.513 73.1773 371.122 71.2723 372.9 69.833C374.763 68.309 376.837 67.2083 379.123 66.531C381.409 65.769 383.864 65.388 386.489 65.388C391.061 65.388 395.083 66.277 398.554 68.055C402.11 69.833 404.904 72.5847 406.936 76.31C408.968 80.0353 409.984 84.8613 409.984 90.788V136H389.537V95.487C389.537 90.4917 388.775 86.7663 387.251 84.311C385.812 81.771 383.526 80.501 380.393 80.501C377.26 80.501 374.763 81.39 372.9 83.168C371.037 84.946 369.725 87.5283 368.963 90.915C368.286 94.3017 367.947 98.4503 367.947 103.361V136H347.627V39.48H367.947V59.165ZM518.082 136H497.381V96.884H467.155V136H446.581V45.322H467.155V80.882H497.381V45.322H518.082V136ZM592.339 66.658V136H576.972L574.305 127.11H573.162C571.807 129.481 570.072 131.428 567.955 132.952C565.923 134.391 563.637 135.45 561.097 136.127C558.557 136.889 555.932 137.27 553.223 137.27C548.736 137.27 544.756 136.381 541.285 134.603C537.814 132.825 535.062 130.073 533.03 126.348C531.083 122.623 530.109 117.797 530.109 111.87V66.658H550.429V107.171C550.429 112.082 551.149 115.807 552.588 118.347C554.027 120.887 556.356 122.157 559.573 122.157C562.875 122.157 565.415 121.268 567.193 119.49C568.971 117.712 570.199 115.13 570.876 111.743C571.638 108.356 572.019 104.208 572.019 99.297V66.658H592.339ZM623.584 61.959C623.584 64.5837 623.499 67.166 623.33 69.706C623.161 72.246 622.991 74.2357 622.822 75.675H623.584C625.277 72.7963 627.521 70.3833 630.315 68.436C633.194 66.404 636.961 65.388 641.618 65.388C648.645 65.388 654.403 68.436 658.89 74.532C663.377 80.5433 665.621 89.4333 665.621 101.202C665.621 109.076 664.563 115.722 662.446 121.141C660.414 126.475 657.535 130.497 653.81 133.206C650.169 135.915 645.894 137.27 640.983 137.27C636.326 137.27 632.686 136.381 630.061 134.603C627.436 132.74 625.277 130.666 623.584 128.38H622.187L619.012 136H603.264V39.48H623.584V61.959ZM634.506 80.501C631.966 80.501 629.892 81.1783 628.283 82.533C626.674 83.8877 625.489 85.962 624.727 88.756C623.965 91.4653 623.584 94.8943 623.584 99.043V101.075C623.584 107.764 624.388 112.928 625.997 116.569C627.606 120.125 630.527 121.903 634.76 121.903C637.977 121.903 640.475 120.125 642.253 116.569C644.031 112.928 644.92 107.721 644.92 100.948C644.92 94.1747 644.031 89.0947 642.253 85.708C640.475 82.2367 637.893 80.501 634.506 80.501Z" fill="url(#paint2_radial_1700_52)"/>
<defs>
<linearGradient id="paint0_linear_1700_52" x1="11.667" y1="107.19" x2="111.927" y2="59.5453" gradientUnits="userSpaceOnUse">
<stop stop-color="#E40035"/>
<stop offset="0.24" stop-color="#F60A48"/>
<stop offset="0.352" stop-color="#F20755"/>
<stop offset="0.494" stop-color="#DC087D"/>
<stop offset="0.745" stop-color="#9717E7"/>
<stop offset="1" stop-color="#6C00F5"/>
</linearGradient>
<linearGradient id="paint1_linear_1700_52" x1="26.2757" y1="33.4633" x2="91.8884" y2="108.309" gradientUnits="userSpaceOnUse">
<stop stop-color="#FF31D9"/>
<stop offset="1" stop-color="#FF5BE1" stop-opacity="0"/>
</linearGradient>
<radialGradient id="paint2_radial_1700_52" cx="0" cy="0" r="1" gradientUnits="userSpaceOnUse" gradientTransform="translate(406 86.5) scale(265 86.5)">
<stop stop-color="#E948A4"/>
<stop offset="1" stop-color="#83285C"/>
</radialGradient>
</defs>
</svg>
